<?xml version="1.0" encoding="utf-8"?>
<!-- Generator: Adobe Illustrator 25.2.3, SVG Export Plug-In . SVG Version: 6.00 Build 0)  -->
<svg version="1.1" id="Layer_1" xmlns="http://www.w3.org/2000/svg" xmlns:xlink="http://www.w3.org/1999/xlink" x="0px" y="0px"
	 viewBox="0 0 500 500" style="enable-background:new 0 0 500 500;" xml:space="preserve">
<style type="text/css">
	.st0{fill:#CE2029;}
</style>
<path class="st0" d="M215.2,54.1l-8-0.8l-10.7-1l-15.1,15.1l-14.9,14.9l1.1,10.7l0.8,8l0.6,6.3l6.4,1.1l15.3,2.5l0.1-6.1l0.2-17
	l-11.8-1.1l1.2,13l5.4-5.4l-0.1,9.6l-10.9-1.9l-1.5-14.8l11.3-11.3l12.3,12.3l-0.1,23.8l7.1,1.2l20.9,3.5l7.3,1.2l0,0l-1.2-7.3
	l-3.5-20.9l-1.2-7.1l-23.8,0.1l-12.3-12.3l11.3-11.3l14.8,1.5l1.9,10.9l-9.6,0.1l5.4-5.4L201,65l1.1,11.8l16.9-0.2l6.1-0.1
	l-2.5-15.3l-1.1-6.4L215.2,54.1z M221.1,89.9l3.1,20.2l-20.2-3.1l-0.3-17.3L221.1,89.9z"/>
<path class="st0" d="M165.4,107l-6.2,5.1l-8.3,6.8v21.3l0,21.1l8.3,6.8l6.2,5.1l4.9,4l5.3-3.8l12.6-9l-4.2-4.3L172.1,148l-9.1,7.6
	l10,8.3v-7.6l6.7,6.9l-9,6.4l-11.5-9.5v-16h17.4l16.8,16.9l5.9-4.2l17.2-12.3l6-4.3l0,0l-6-4.3l-17.2-12.3l-5.9-4.2l-16.8,16.9
	h-17.4v-16l11.5-9.5l9,6.4l-6.7,6.9v-7.6l-10,8.3l9.1,7.6l11.8-12.2l4.2-4.3l-12.6-9l-5.3-3.8L165.4,107z M194.9,128.1l16.5,12
	l-16.5,12.1l-12.5-12.1L194.9,128.1z"/>
<path class="st0" d="M167.6,179.6l-0.8,8l-1.1,10.7l15.1,15.1l14.9,14.9l10.7-1.1l8-0.8l6.3-0.6l1.1-6.4l2.5-15.3l-6.1-0.1l-17-0.2
	l-1.1,11.8l13-1.2l-5.4-5.4l9.6,0.1l-1.9,10.9l-14.8,1.5l-11.3-11.3l12.3-12.3l23.8,0.1l1.2-7.1l3.5-20.9l1.2-7.3l0,0l-7.3,1.2
	l-20.9,3.5l-7.1,1.2l0.1,23.8l-12.3,12.3l-11.3-11.3l1.5-14.8l10.9-1.9l0.1,9.6l-5.4-5.4l-1.2,13l11.8-1.1l-0.2-16.9l-0.1-6.1
	l-15.3,2.5l-6.4,1.1L167.6,179.6z M203.3,173.6l20.2-3.1l-3.1,20.2l-17.3,0.3L203.3,173.6z"/>
<path class="st0" d="M220.4,229.3l5.1,6.2l6.8,8.3h21.3l21.1,0l6.8-8.3l5.1-6.2l4-4.9l-3.8-5.3l-9-12.6l-4.3,4.2l-12.2,11.8l7.6,9.1
	l8.3-10h-7.6l6.9-6.7l6.4,9l-9.5,11.5h-16v-17.4l16.9-16.8l-4.2-5.9l-12.3-17.2l-4.3-6l0,0l-4.3,6l-12.3,17.2l-4.2,5.9l16.9,16.8
	v17.4h-16l-9.5-11.5l6.4-9l6.9,6.7h-7.6l8.3,10l7.6-9.1l-12.2-11.8l-4.3-4.2l-9,12.6l-3.8,5.3L220.4,229.3z M241.5,199.8l12-16.5
	l12.1,16.5l-12.1,12.5L241.5,199.8z"/>
<path class="st0" d="M293,227.1l8,0.8l10.7,1l15.1-15.1l14.9-14.9l-1.1-10.7l-0.8-8l-0.6-6.3l-6.4-1.1l-15.3-2.5l-0.1,6.1l-0.2,17
	l11.8,1.1l-1.2-13l-5.4,5.4l0.1-9.6l10.9,1.9l1.5,14.8l-11.3,11.3L311.2,193l0.1-23.8l-7.1-1.2l-20.9-3.5l-7.3-1.2l0,0l1.2,7.3
	l3.5,20.9l1.2,7.1l23.8-0.1l12.3,12.3l-11.3,11.3l-14.8-1.5l-1.9-10.9l9.6-0.1l-5.4,5.4l13,1.2l-1.1-11.8l-16.9,0.2l-6.1,0.1
	l2.5,15.3l1.1,6.4L293,227.1z M287,191.4l-3.1-20.2l20.2,3.1l0.3,17.3L287,191.4z"/>
<path class="st0" d="M342.8,174.3l6.2-5.1l8.3-6.8v-21.3l0-21.1l-8.3-6.8l-6.2-5.1l-4.9-4l-5.3,3.8l-12.6,9l4.2,4.3l11.8,12.2
	l9.1-7.6l-10-8.3v7.6l-6.7-6.9l9-6.4l11.5,9.5v16h-17.4l-16.8-16.9l-5.9,4.2l-17.2,12.3l-6,4.3l0,0l6,4.3l17.2,12.3l5.9,4.2
	l16.8-16.9H349v16l-11.5,9.5l-9-6.4l6.7-6.9v7.6l10-8.3L336,149l-11.8,12.2l-4.2,4.3l12.6,9l5.3,3.8L342.8,174.3z M313.3,153.2
	l-16.5-12l16.5-12.1l12.5,12.1L313.3,153.2z"/>
<path class="st0" d="M340.6,101.7l0.8-8l1.1-10.7L327.3,68l-14.9-14.9l-10.7,1.1l-8,0.8l-6.3,0.6l-1.1,6.4l-2.5,15.3l6.1,0.1l17,0.2
	l1.1-11.8l-13,1.2l5.4,5.4l-9.6-0.1l1.9-10.9l14.8-1.5l11.3,11.3l-12.3,12.3l-23.8-0.1l-1.2,7.1l-3.5,20.9l-1.2,7.3l0,0l7.3-1.2
	l20.9-3.5l7.1-1.2L312,89l12.3-12.3L335.6,88l-1.5,14.8l-10.9,1.9l-0.1-9.6l5.4,5.4l1.2-13L318,88.6l0.2,16.9l0.1,6.1l15.3-2.5
	l6.4-1.1L340.6,101.7z M304.8,107.7l-20.2,3.1l3.1-20.2l17.3-0.3L304.8,107.7z"/>
<path class="st0" d="M218,56.8l3.8,5.3l9,12.6l4.3-4.2l12.2-11.8l-7.6-9.1l-8.3,10h7.6l-6.9,6.7l-6.4-9l9.5-11.5h16v17.4l-16.9,16.8
	l4.2,5.9l12.3,17.2l4.3,6l0,0l4.3-6l12.3-17.2l4.2-5.9l-16.9-16.8V45.7h16l9.5,11.5l-6.4,9l-6.9-6.7h7.6l-8.3-10l-7.6,9.1l12.2,11.8
	l4.3,4.2l9-12.6l3.8-5.3l-4-4.9l-5.1-6.2l-6.8-8.3l-21.1,0H234l-6.8,8.3l-5.1,6.2L218,56.8z M255.1,69l12.1,12.5l-12.1,16.5
	l-12-16.5L255.1,69z"/>
<polygon points="107.2,399.4 89.7,399.4 81.7,383.8 62.6,346.3 43.5,383.8 35.5,399.4 18,399.4 26,383.8 62.6,311.9 99.2,383.8 "/>
<polygon points="202.6,383.7 202.6,399.3 135,399.3 134.8,399.4 115.1,399.4 115.2,399.3 127.2,383.7 148.7,355.8 158.6,343 
	170.6,327.5 115,327.5 115,311.9 182.6,311.9 202.2,311.9 190.1,327.5 168.3,355.8 158.5,368.5 146.7,383.7 "/>
<path d="M230.3,335.5v8.1h56.2v15.6h-56.2v16.5c0,4.4,3.6,8,8,8h63.9v15.6h-63.9c-13,0-23.5-10.6-23.5-23.6v-40.2
	c0-13,10.5-23.6,23.5-23.6h63.9v15.6h-63.9C234,327.5,230.3,331.2,230.3,335.5"/>
<path d="M385.3,383.9l8,15.6h-17.5l-8-15.6l-8.4-16.4l-0.4-0.8c-2.8-4.5-7.6-7.5-13.2-7.5h-15.6v40.2h-15.6V312h55.2
	c6.5,0,12.4,2.6,16.6,6.9c4.2,4.4,6.9,10.2,6.9,16.8c0,9.5-5.6,17.8-13.8,21.5c-2.1,1-4.4,1.6-6.8,1.9L385.3,383.9z M369.8,343.7
	c1.1,0,2.2-0.2,3.2-0.8c2.9-1.2,4.8-4.1,4.8-7.2c0-2.9-1.5-4.9-2.4-5.8c-1-1-2.9-2.2-5.6-2.2h-39.6v16.1L369.8,343.7z"/>
<polygon points="490.3,399.4 472.8,399.4 464.8,383.8 445.7,346.3 426.6,383.8 418.6,399.4 401.1,399.4 409.1,383.8 445.7,311.9 
	482.3,383.8 "/>
<polygon points="163.1,436.9 163.1,462.4 159,462.4 159,451.2 146.2,451.2 146.2,462.4 142.1,462.4 142.1,436.9 146.2,436.9 
	146.2,447.6 159,447.6 159,436.9 "/>
<path d="M190.2,462.6c-1.8,0-3.4-0.4-4.9-1.1c-1.5-0.7-2.8-1.7-3.9-2.9c-1.1-1.2-1.9-2.6-2.5-4.2c-0.6-1.5-0.9-3.1-0.9-4.8
	c0-1.7,0.3-3.3,0.9-4.9c0.6-1.5,1.5-2.9,2.6-4.1c1.1-1.2,2.4-2.2,3.9-2.9c1.5-0.7,3.1-1.1,4.9-1.1c1.8,0,3.5,0.4,5,1.1
	c1.5,0.7,2.8,1.7,3.8,3c1.1,1.2,1.9,2.6,2.5,4.2c0.6,1.5,0.9,3.1,0.9,4.8c0,1.7-0.3,3.3-0.9,4.8c-0.6,1.5-1.5,2.9-2.6,4.1
	c-1.1,1.2-2.4,2.2-3.9,2.9C193.7,462.3,192,462.6,190.2,462.6 M182.2,449.6c0,1.2,0.2,2.4,0.6,3.5c0.4,1.1,0.9,2.1,1.6,3
	c0.7,0.9,1.6,1.6,2.6,2.1c1,0.5,2.1,0.8,3.4,0.8c1.3,0,2.4-0.3,3.5-0.8c1-0.5,1.9-1.2,2.6-2.1c0.7-0.9,1.2-1.9,1.6-3
	c0.4-1.1,0.5-2.2,0.5-3.4c0-1.2-0.2-2.4-0.6-3.5c-0.4-1.1-0.9-2.1-1.7-3c-0.7-0.9-1.6-1.6-2.6-2.1c-1-0.5-2.1-0.8-3.3-0.8
	c-1.3,0-2.5,0.3-3.5,0.8c-1,0.5-1.8,1.2-2.5,2.1c-0.7,0.9-1.2,1.9-1.6,3C182.3,447.4,182.2,448.5,182.2,449.6"/>
<polygon points="217.5,462.4 217.5,436.9 221.6,436.9 221.6,458.9 235.3,458.9 235.3,462.4 "/>
<path d="M249.3,462.4v-25.6h9.1c2.8,0,5.1,0.6,6.9,1.7c1.8,1.1,3.2,2.7,4.2,4.6c0.9,1.9,1.4,4.1,1.4,6.4c0,2.6-0.5,4.8-1.5,6.8
	c-1,1.9-2.5,3.4-4.3,4.5c-1.9,1.1-4.1,1.6-6.6,1.6H249.3z M266.8,449.6c0-1.8-0.3-3.4-1-4.8c-0.7-1.4-1.6-2.4-2.8-3.2
	c-1.2-0.8-2.7-1.2-4.5-1.2h-5v18.4h5c1.8,0,3.3-0.4,4.6-1.2c1.2-0.8,2.2-1.9,2.8-3.3C266.4,452.9,266.8,451.4,266.8,449.6"/>
<rect x="285.9" y="436.9" width="4.1" height="25.6"/>
<polygon points="310.6,444.4 310.6,462.4 306.5,462.4 306.5,436.9 309.8,436.9 324.3,455.3 324.3,436.9 328.3,436.9 328.3,462.4 
	324.8,462.4 "/>
<path d="M355.3,462.6c-1.7,0-3.3-0.3-4.7-1c-1.5-0.7-2.7-1.6-3.8-2.9c-1.1-1.2-1.9-2.6-2.6-4.2c-0.6-1.6-0.9-3.2-0.9-5
	s0.3-3.4,0.9-4.9c0.6-1.5,1.5-2.9,2.6-4.1c1.1-1.2,2.4-2.1,3.9-2.8c1.5-0.7,3.1-1,4.8-1c2.4,0,4.5,0.5,6.2,1.5c1.7,1,2.9,2.4,3.8,4
	l-3.1,2.2c-0.7-1.4-1.7-2.4-2.9-3.1c-1.2-0.7-2.6-1-4-1c-1.2,0-2.3,0.3-3.3,0.8c-1,0.5-1.8,1.2-2.5,2.1c-0.7,0.9-1.2,1.9-1.6,3
	c-0.4,1.1-0.6,2.3-0.6,3.5c0,1.3,0.2,2.5,0.6,3.6c0.4,1.1,1,2.1,1.7,3c0.7,0.9,1.6,1.5,2.6,2c1,0.5,2.1,0.7,3.2,0.7
	c1.4,0,2.8-0.4,4-1.1s2.4-1.8,3.5-3.2v4.1C361,461.3,358.3,462.6,355.3,462.6 M362.8,452.5h-5.3v-3h8.7v13h-3.4V452.5z"/>
</svg>
