<svg xmlns="http://www.w3.org/2000/svg" width="24" height="24" viewBox="0 0 24 24">
  <path fill="#EA4335" d="M12 5.5c1.54 0 2.93.53 4.03 1.57l3-3C17.74 2.02 15.13 1 12 1 7.7 1 3.98 3.42 2.25 7.04l3.52 2.73C6.63 7.21 9.06 5.5 12 5.5z" />
  <path fill="#4285F4" d="M21.8 12.23c0-.7-.06-1.22-.18-1.76H12v3.31h5.58c-.25 1.29-1.01 2.38-2.17 3.11l3.38 2.63c1.98-1.82 3.01-4.51 3.01-7.29z" />
  <path fill="#FBBC05" d="M5.77 13.23A4.74 4.74 0 0 1 5.51 12c0-.43.08-.85.25-1.23L2.25 7.04A10.02 10.02 0 0 0 2 12c0 1.61.39 3.13 1.08 4.48l3.69-2.85z" />
  <path fill="#34A853" d="M12 22c2.7 0 4.97-.89 6.63-2.39l-3.38-2.63c-.9.57-2.06.92-3.25.92-2.94 0-5.37-1.71-6.27-4.11l-3.69 2.85C4.98 20.58 8.7 23 12 23z" />
</svg>
